{
    "asset" : {
        "generator" : "Khronos glTF Blender I/O v1.3.48",
        "version" : "2.0"
    },
    "scene" : 0,
    "scenes" : [
        {
            "name" : "Scene",
            "nodes" : [
                0,
                1,
                2,
                3,
                4,
                5,
                6,
                7,
                8
            ]
        }
    ],
    "nodes" : [
        {
            "mesh" : 0,
            "name" : "Plane",
            "scale" : [
                0.05670000985264778,
                0.05670000985264778,
                0.05670000985264778
            ],
            "translation" : [
                2.8693675994873047,
                -0.023679256439208984,
                3.1215744018554688
            ]
        },
        {
            "name" : "Light",
            "rotation" : [
                -0.27217137813568115,
                0.5709474682807922,
                -0.16907572746276855,
                -0.7558803558349609
            ],
            "scale" : [
                0.056699998676776886,
                0.05670000985264778,
                0.05670001730322838
            ],
            "translation" : [
                -5.681375503540039,
                1.853315830230713,
                -1.2303085327148438
            ]
        },
        {
            "name" : "Camera",
            "rotation" : [
                0.4698464274406433,
                0.29619815945625305,
                -0.1710100620985031,
                0.8137977719306946
            ],
            "scale" : [
                100,
                1,
                100
            ],
            "translation" : [
                75.66352844238281,
                162.72238159179688,
                101.2561264038086
            ]
        },
        {
            "mesh" : 1,
            "name" : "bed-mattress",
            "rotation" : [
                0.4999999701976776,
                0.5,
                -0.5000001192092896,
                0.49999988079071045
            ],
            "scale" : [
                0.05670000985264778,
                0.05670000985264778,
                0.05670000985264778
            ],
            "translation" : [
                -8.236146926879883,
                1.5185647010803223,
                -3.8115921020507812
            ]
        },
        {
            "mesh" : 2,
            "name" : "bed-platform",
            "rotation" : [
                0.4999999701976776,
                0.5,
                -0.5000001192092896,
                0.49999988079071045
            ],
            "scale" : [
                0.05670000985264778,
                0.05670000985264778,
                0.05670000985264778
            ],
            "translation" : [
                -8.236146926879883,
                1.5185647010803223,
                -3.8115921020507812
            ]
        },
        {
            "mesh" : 3,
            "name" : "bed-structure",
            "rotation" : [
                0.4999999701976776,
                0.5,
                -0.5000001192092896,
                0.49999988079071045
            ],
            "scale" : [
                0.05670000985264778,
                0.05670000985264778,
                0.05670000985264778
            ],
            "translation" : [
                -8.236146926879883,
                1.5185647010803223,
                -3.8115921020507812
            ]
        },
        {
            "mesh" : 4,
            "name" : "divan",
            "rotation" : [
                0.4999999701976776,
                0.5,
                -0.5000001192092896,
                0.49999988079071045
            ],
            "scale" : [
                0.05670000985264778,
                0.05670000985264778,
                0.05670000985264778
            ],
            "translation" : [
                -8.236146926879883,
                1.5185647010803223,
                -3.8115921020507812
            ]
        },
        {
            "mesh" : 5,
            "name" : "divan-mattress",
            "rotation" : [
                0.4999999701976776,
                0.5,
                -0.5000001192092896,
                0.49999988079071045
            ],
            "scale" : [
                0.05670000985264778,
                0.05670000985264778,
                0.05670000985264778
            ],
            "translation" : [
                -8.236146926879883,
                1.5185647010803223,
                -3.8115921020507812
            ]
        },
        {
            "mesh" : 6,
            "name" : "pillow",
            "rotation" : [
                0.4999999701976776,
                0.5,
                -0.5000001192092896,
                0.49999988079071045
            ],
            "scale" : [
                0.05670000985264778,
                0.05670000985264778,
                0.05670000985264778
            ],
            "translation" : [
                -8.236146926879883,
                1.5185647010803223,
                -3.8115921020507812
            ]
        }
    ],
    "materials" : [
        {
            "emissiveFactor" : [
                0,
                0,
                0
            ],
            "name" : "lambert3SG.002",
            "pbrMetallicRoughness" : {
                "baseColorFactor" : [
                    0.4399999976158142,
                    0.38999998569488525,
                    0.3400000035762787,
                    1
                ],
                "metallicFactor" : 0,
                "roughnessFactor" : 1
            }
        },
        {
            "emissiveFactor" : [
                0,
                0,
                0
            ],
            "name" : "phong3SG.001",
            "pbrMetallicRoughness" : {
                "baseColorFactor" : [
                    0,
                    0,
                    0,
                    1
                ],
                "metallicFactor" : 0,
                "roughnessFactor" : 0.858578622341156
            }
        },
        {
            "alphaMode" : "BLEND",
            "doubleSided" : true,
            "emissiveFactor" : [
                0,
                0,
                0
            ],
            "name" : "lambert3SG.003",
            "pbrMetallicRoughness" : {
                "baseColorFactor" : [
                    0.4399999976158142,
                    0.38999998569488525,
                    0.3400000035762787,
                    1
                ],
                "metallicFactor" : 0,
                "roughnessFactor" : 1
            }
        },
        {
            "emissiveFactor" : [
                0,
                0,
                0
            ],
            "name" : "phong2SG.002",
            "pbrMetallicRoughness" : {
                "baseColorTexture" : {
                    "index" : 0,
                    "texCoord" : 0
                },
                "metallicFactor" : 0,
                "roughnessFactor" : 0.858578622341156
            }
        },
        {
            "emissiveFactor" : [
                0,
                0,
                0
            ],
            "name" : "phong2SG.003",
            "pbrMetallicRoughness" : {
                "baseColorTexture" : {
                    "index" : 1,
                    "texCoord" : 0
                },
                "metallicFactor" : 0,
                "roughnessFactor" : 0.858578622341156
            }
        },
        {
            "emissiveFactor" : [
                0,
                0,
                0
            ],
            "name" : "lambert4SG.002",
            "pbrMetallicRoughness" : {
                "baseColorFactor" : [
                    0.800000011920929,
                    0.7799999713897705,
                    0.7599999904632568,
                    1
                ],
                "metallicFactor" : 0,
                "roughnessFactor" : 1
            }
        },
        {
            "emissiveFactor" : [
                0,
                0,
                0
            ],
            "name" : "pillow1:lambert4SG.002",
            "pbrMetallicRoughness" : {
                "baseColorFactor" : [
                    0.800000011920929,
                    0.7799999713897705,
                    0.7599999904632568,
                    1
                ],
                "metallicFactor" : 0,
                "roughnessFactor" : 1
            }
        }
    ],
    "meshes" : [
        {
            "name" : "Plane.002",
            "primitives" : [
                {
                    "attributes" : {
                        "POSITION" : 0,
                        "NORMAL" : 1,
                        "TEXCOORD_0" : 2
                    },
                    "indices" : 3
                }
            ]
        },
        {
            "name" : "bed-mattress",
            "primitives" : [
                {
                    "attributes" : {
                        "POSITION" : 4,
                        "NORMAL" : 5,
                        "TEXCOORD_0" : 6
                    },
                    "indices" : 7,
                    "material" : 0
                }
            ]
        },
        {
            "name" : "bed-platform",
            "primitives" : [
                {
                    "attributes" : {
                        "POSITION" : 8,
                        "NORMAL" : 9,
                        "TEXCOORD_0" : 10
                    },
                    "indices" : 11,
                    "material" : 1
                },
                {
                    "attributes" : {
                        "POSITION" : 12,
                        "NORMAL" : 13,
                        "TEXCOORD_0" : 14
                    },
                    "indices" : 15,
                    "material" : 2
                }
            ]
        },
        {
            "name" : "bed-structure",
            "primitives" : [
                {
                    "attributes" : {
                        "POSITION" : 16,
                        "NORMAL" : 17,
                        "TEXCOORD_0" : 18
                    },
                    "indices" : 19,
                    "material" : 3
                }
            ]
        },
        {
            "name" : "divan",
            "primitives" : [
                {
                    "attributes" : {
                        "POSITION" : 20,
                        "NORMAL" : 21,
                        "TEXCOORD_0" : 22
                    },
                    "indices" : 23,
                    "material" : 4
                }
            ]
        },
        {
            "name" : "divan-mattress",
            "primitives" : [
                {
                    "attributes" : {
                        "POSITION" : 24,
                        "NORMAL" : 25,
                        "TEXCOORD_0" : 26
                    },
                    "indices" : 7,
                    "material" : 5
                }
            ]
        },
        {
            "name" : "pillow",
            "primitives" : [
                {
                    "attributes" : {
                        "POSITION" : 27,
                        "NORMAL" : 28,
                        "TEXCOORD_0" : 29
                    },
                    "indices" : 30,
                    "material" : 6
                }
            ]
        }
    ],
    "textures" : [
        {
            "source" : 0
        },
        {
            "source" : 0
        }
    ],
    "images" : [
        {
            "bufferView" : 20,
            "mimeType" : "image/jpeg",
            "name" : "Wood023_2K_ColorPink"
        }
    ],
    "accessors" : [
        {
            "bufferView" : 0,
            "componentType" : 5126,
            "count" : 16,
            "max" : [
                300,
                148.7283935546875,
                300
            ],
            "min" : [
                -300,
                0,
                -300
            ],
            "type" : "VEC3"
        },
        {
            "bufferView" : 1,
            "componentType" : 5126,
            "count" : 16,
            "type" : "VEC3"
        },
        {
            "bufferView" : 2,
            "componentType" : 5126,
            "count" : 16,
            "type" : "VEC2"
        },
        {
            "bufferView" : 3,
            "componentType" : 5123,
            "count" : 24,
            "type" : "SCALAR"
        },
        {
            "bufferView" : 4,
            "componentType" : 5126,
            "count" : 112,
            "max" : [
                45,
                94.98673248291016,
                5.879961967468262
            ],
            "min" : [
                -45,
                -91.01180267333984,
                -10
            ],
            "type" : "VEC3"
        },
        {
            "bufferView" : 5,
            "componentType" : 5126,
            "count" : 112,
            "type" : "VEC3"
        },
        {
            "bufferView" : 6,
            "componentType" : 5126,
            "count" : 112,
            "type" : "VEC2"
        },
        {
            "bufferView" : 7,
            "componentType" : 5123,
            "count" : 348,
            "type" : "SCALAR"
        },
        {
            "bufferView" : 8,
            "componentType" : 5126,
            "count" : 590,
            "max" : [
                46.35649108886719,
                99.46365356445312,
                8.329548835754395
            ],
            "min" : [
                -46.77751541137695,
                -95.48871612548828,
                6.419869899749756
            ],
            "type" : "VEC3"
        },
        {
            "bufferView" : 9,
            "componentType" : 5126,
            "count" : 590,
            "type" : "VEC3"
        },
        {
            "bufferView" : 10,
            "componentType" : 5126,
            "count" : 590,
            "type" : "VEC2"
        },
        {
            "bufferView" : 11,
            "componentType" : 5123,
            "count" : 1308,
            "type" : "SCALAR"
        },
        {
            "bufferView" : 12,
            "componentType" : 5126,
            "count" : 112,
            "max" : [
                43.348323822021484,
                80.58747100830078,
                7.95814323425293
            ],
            "min" : [
                -44.03867721557617,
                -71.11967468261719,
                7.186592102050781
            ],
            "type" : "VEC3"
        },
        {
            "bufferView" : 13,
            "componentType" : 5126,
            "count" : 112,
            "type" : "VEC3"
        },
        {
            "bufferView" : 14,
            "componentType" : 5126,
            "count" : 112,
            "type" : "VEC2"
        },
        {
            "bufferView" : 15,
            "componentType" : 5123,
            "count" : 168,
            "type" : "SCALAR"
        },
        {
            "bufferView" : 16,
            "componentType" : 5126,
            "count" : 504,
            "max" : [
                51.464412689208984,
                103,
                26.85978889465332
            ],
            "min" : [
                -51.464412689208984,
                -98.50125122070312,
                -26.91907501220703
            ],
            "type" : "VEC3"
        },
        {
            "bufferView" : 17,
            "componentType" : 5126,
            "count" : 504,
            "type" : "VEC3"
        },
        {
            "bufferView" : 18,
            "componentType" : 5126,
            "count" : 504,
            "type" : "VEC2"
        },
        {
            "bufferView" : 19,
            "componentType" : 5123,
            "count" : 1464,
            "type" : "SCALAR"
        },
        {
            "bufferView" : 21,
            "componentType" : 5126,
            "count" : 108,
            "max" : [
                19.772964477539062,
                98.64018249511719,
                26.965248107910156
            ],
            "min" : [
                -76.86094665527344,
                -94.14143371582031,
                11.867033004760742
            ],
            "type" : "VEC3"
        },
        {
            "bufferView" : 22,
            "componentType" : 5126,
            "count" : 108,
            "type" : "VEC3"
        },
        {
            "bufferView" : 23,
            "componentType" : 5126,
            "count" : 108,
            "type" : "VEC2"
        },
        {
            "bufferView" : 24,
            "componentType" : 5123,
            "count" : 192,
            "type" : "SCALAR"
        },
        {
            "bufferView" : 25,
            "componentType" : 5126,
            "count" : 112,
            "max" : [
                16.456010818481445,
                94.98673248291016,
                26.965248107910156
            ],
            "min" : [
                -73.54399108886719,
                -91.01180267333984,
                11.085286140441895
            ],
            "type" : "VEC3"
        },
        {
            "bufferView" : 26,
            "componentType" : 5126,
            "count" : 112,
            "type" : "VEC3"
        },
        {
            "bufferView" : 27,
            "componentType" : 5126,
            "count" : 112,
            "type" : "VEC2"
        },
        {
            "bufferView" : 28,
            "componentType" : 5126,
            "count" : 449,
            "max" : [
                29.03291130065918,
                -29.599992752075195,
                -8.594334602355957
            ],
            "min" : [
                -37.699134826660156,
                -84.16160583496094,
                -27.148963928222656
            ],
            "type" : "VEC3"
        },
        {
            "bufferView" : 29,
            "componentType" : 5126,
            "count" : 449,
            "type" : "VEC3"
        },
        {
            "bufferView" : 30,
            "componentType" : 5126,
            "count" : 449,
            "type" : "VEC2"
        },
        {
            "bufferView" : 31,
            "componentType" : 5123,
            "count" : 1680,
            "type" : "SCALAR"
        }
    ],
    "bufferViews" : [
        {
            "buffer" : 0,
            "byteLength" : 192,
            "byteOffset" : 0
        },
        {
            "buffer" : 0,
            "byteLength" : 192,
            "byteOffset" : 192
        },
        {
            "buffer" : 0,
            "byteLength" : 128,
            "byteOffset" : 384
        },
        {
            "buffer" : 0,
            "byteLength" : 48,
            "byteOffset" : 512
        },
        {
            "buffer" : 0,
            "byteLength" : 1344,
            "byteOffset" : 560
        },
        {
            "buffer" : 0,
            "byteLength" : 1344,
            "byteOffset" : 1904
        },
        {
            "buffer" : 0,
            "byteLength" : 896,
            "byteOffset" : 3248
        },
        {
            "buffer" : 0,
            "byteLength" : 696,
            "byteOffset" : 4144
        },
        {
            "buffer" : 0,
            "byteLength" : 7080,
            "byteOffset" : 4840
        },
        {
            "buffer" : 0,
            "byteLength" : 7080,
            "byteOffset" : 11920
        },
        {
            "buffer" : 0,
            "byteLength" : 4720,
            "byteOffset" : 19000
        },
        {
            "buffer" : 0,
            "byteLength" : 2616,
            "byteOffset" : 23720
        },
        {
            "buffer" : 0,
            "byteLength" : 1344,
            "byteOffset" : 26336
        },
        {
            "buffer" : 0,
            "byteLength" : 1344,
            "byteOffset" : 27680
        },
        {
            "buffer" : 0,
            "byteLength" : 896,
            "byteOffset" : 29024
        },
        {
            "buffer" : 0,
            "byteLength" : 336,
            "byteOffset" : 29920
        },
        {
            "buffer" : 0,
            "byteLength" : 6048,
            "byteOffset" : 30256
        },
        {
            "buffer" : 0,
            "byteLength" : 6048,
            "byteOffset" : 36304
        },
        {
            "buffer" : 0,
            "byteLength" : 4032,
            "byteOffset" : 42352
        },
        {
            "buffer" : 0,
            "byteLength" : 2928,
            "byteOffset" : 46384
        },
        {
            "buffer" : 0,
            "byteLength" : 1390896,
            "byteOffset" : 49312
        },
        {
            "buffer" : 0,
            "byteLength" : 1296,
            "byteOffset" : 1440208
        },
        {
            "buffer" : 0,
            "byteLength" : 1296,
            "byteOffset" : 1441504
        },
        {
            "buffer" : 0,
            "byteLength" : 864,
            "byteOffset" : 1442800
        },
        {
            "buffer" : 0,
            "byteLength" : 384,
            "byteOffset" : 1443664
        },
        {
            "buffer" : 0,
            "byteLength" : 1344,
            "byteOffset" : 1444048
        },
        {
            "buffer" : 0,
            "byteLength" : 1344,
            "byteOffset" : 1445392
        },
        {
            "buffer" : 0,
            "byteLength" : 896,
            "byteOffset" : 1446736
        },
        {
            "buffer" : 0,
            "byteLength" : 5388,
            "byteOffset" : 1447632
        },
        {
            "buffer" : 0,
            "byteLength" : 5388,
            "byteOffset" : 1453020
        },
        {
            "buffer" : 0,
            "byteLength" : 3592,
            "byteOffset" : 1458408
        },
        {
            "buffer" : 0,
            "byteLength" : 3360,
            "byteOffset" : 1462000
        }
    ],
    "buffers" : [
        {
            "byteLength" : 1465360,
            "uri" : "data:application/octet-stream;base64,"
        }
    ]
}
